{
  "accessors": [
    {
      "bufferView": 0,
      "byteOffset": 0,
      "componentType": 5123,
      "count": 295341,
      "max": [
        65533.0
      ],
      "min": [
        0.0
      ],
      "name": "buffer-0-group-0-mesh-0-indices",
      "type": "SCALAR"
    },
    {
      "bufferView": 1,
      "byteOffset": 0,
      "componentType": 5126,
      "count": 65534,
      "max": [
        25.32069969177246,
        20.553897857666016,
        5.705460071563721
      ],
      "min": [
        14.006587982177734,
        -18.068443298339844,
        -5.705460071563721
      ],
      "name": "buffer-0-group-0-mesh-0-position",
      "type": "VEC3"
    },
    {
      "bufferView": 1,
      "byteOffset": 786408,
      "componentType": 5126,
      "count": 65534,
      "max": [
        1.0,
        1.0,
        1.0
      ],
      "min": [
        -1.0,
        -1.0,
        -1.0
      ],
      "name": "buffer-0-group-0-mesh-0-normal",
      "type": "VEC3"
    },
    {
      "bufferView": 2,
      "byteOffset": 0,
      "componentType": 5126,
      "count": 65534,
      "max": [
        0.9202790260314941,
        -9.980000322684646E-4
      ],
      "min": [
        9.190000128000975E-4,
        -0.9990019798278809
      ],
      "name": "buffer-0-group-0-mesh-0-texcoord",
      "type": "VEC2"
    },
    {
      "bufferView": 0,
      "byteOffset": 590682,
      "componentType": 5123,
      "count": 164640,
      "max": [
        38774.0
      ],
      "min": [
        0.0
      ],
      "name": "buffer-0-group-0-mesh-1-indices",
      "type": "SCALAR"
    },
    {
      "bufferView": 1,
      "byteOffset": 1572816,
      "componentType": 5126,
      "count": 38775,
      "max": [
        25.495573043823242,
        19.916271209716797,
        5.05766487121582
      ],
      "min": [
        13.64146614074707,
        -17.23235321044922,
        -5.057665824890137
      ],
      "name": "buffer-0-group-0-mesh-1-position",
      "type": "VEC3"
    },
    {
      "bufferView": 1,
      "byteOffset": 2038116,
      "componentType": 5126,
      "count": 38775,
      "max": [
        1.0,
        1.0,
        1.0
      ],
      "min": [
        -1.0,
        -1.0,
        -1.0
      ],
      "name": "buffer-0-group-0-mesh-1-normal",
      "type": "VEC3"
    },
    {
      "bufferView": 2,
      "byteOffset": 524272,
      "componentType": 5126,
      "count": 38775,
      "max": [
        0.9202790260314941,
        -9.980000322684646E-4
      ],
      "min": [
        9.190000128000975E-4,
        -0.9988210201263428
      ],
      "name": "buffer-0-group-0-mesh-1-texcoord",
      "type": "VEC2"
    },
    {
      "bufferView": 0,
      "byteOffset": 919962,
      "componentType": 5123,
      "count": 3,
      "max": [
        2.0
      ],
      "min": [
        0.0
      ],
      "name": "buffer-0-group-1-mesh-0-indices",
      "type": "SCALAR"
    },
    {
      "bufferView": 1,
      "byteOffset": 2503416,
      "componentType": 5126,
      "count": 3,
      "max": [
        19.799482345581055,
        7.323440074920654,
        -3.3416059017181396
      ],
      "min": [
        19.799482345581055,
        6.196757793426514,
        -3.3416059017181396
      ],
      "name": "buffer-0-group-1-mesh-0-position",
      "type": "VEC3"
    },
    {
      "bufferView": 1,
      "byteOffset": 2503452,
      "componentType": 5126,
      "count": 3,
      "max": [
        1.0,
        0.0,
        0.0
      ],
      "min": [
        1.0,
        0.0,
        0.0
      ],
      "name": "buffer-0-group-1-mesh-0-normal",
      "type": "VEC3"
    }
  ],
  "asset": {
    "generator": "Obj2GltfConverter",
    "version": "2.0"
  },
  "bufferViews": [
    {
      "buffer": 0,
      "byteLength": 919968,
      "byteOffset": 0,
      "name": "buffer-0-bufferview-ushort",
      "target": 34963
    },
    {
      "buffer": 0,
      "byteLength": 2503488,
      "byteOffset": 919968,
      "byteStride": 12,
      "name": "buffer-0-bufferview-vec3",
      "target": 34962
    },
    {
      "buffer": 0,
      "byteLength": 834472,
      "byteOffset": 3423456,
      "byteStride": 8,
      "name": "buffer-0-bufferview-vec2",
      "target": 34962
    }
  ],
  "buffers": [
    {
      "byteLength": 4257928,
      "name": "buffer-0",
      "uri": "uploads_files_695660_stup_highres.bin"
    }
  ],
  "materials": [
    {
      "alphaMode": "OPAQUE",
      "doubleSided": true,
      "name": "__default",
      "pbrMetallicRoughness": {
        "baseColorFactor": [
          1.0,
          1.0,
          1.0,
          1.0
        ],
        "metallicFactor": 0.0,
        "roughnessFactor": 0.9699476628648295
      }
    }
  ],
  "meshes": [
    {
      "name": "buffer-0-mesh-0",
      "primitives": [
        {
          "attributes": {
            "POSITION": 1,
            "NORMAL": 2,
            "TEXCOORD_0": 3
          },
          "indices": 0,
          "material": 0,
          "mode": 4
        },
        {
          "attributes": {
            "POSITION": 5,
            "NORMAL": 6,
            "TEXCOORD_0": 7
          },
          "indices": 4,
          "material": 0,
          "mode": 4
        },
        {
          "attributes": {
            "POSITION": 9,
            "NORMAL": 10
          },
          "indices": 8,
          "material": 0,
          "mode": 4
        }
      ]
    }
  ],
  "nodes": [
    {
      "mesh": 0,
      "name": "node-0"
    }
  ],
  "scenes": [
    {
      "name": "scene-0",
      "nodes": [
        0
      ]
    }
  ]
}